<svg xmlns="http://www.w3.org/2000/svg" viewBox="0 0 32 32" role="img" aria-label="FoodRush">
  <defs>
    <linearGradient id="bg" x1="0%" y1="0%" x2="100%" y2="100%">
      <stop offset="0%" stop-color="#fb923c"/>
      <stop offset="100%" stop-color="#ea580c"/>
    </linearGradient>
  </defs>
  <rect width="32" height="32" rx="8" fill="url(#bg)"/>
  <path d="M9 20h14v2H9z" fill="#fff" opacity="0.95"/>
  <path d="M11 11c0-2.2 1.3-4 3-4s3 1.8 3 4-1.3 4-3 4-3-1.8-3-4z" fill="#fff"/>
  <path d="M17 11c0-2.2 1.3-4 3-4s3 1.8 3 4-1.3 4-3 4-3-1.8-3-4z" fill="#fff"/>
  <path d="M8 20c0-4 3.6-7 8-7s8 3 8 7" fill="none" stroke="#fff" stroke-width="2.2" stroke-linecap="round"/>
</svg>
